<svg height="512pt" viewBox="0 0 512 512.00015" width="512pt" xmlns="http://www.w3.org/2000/svg"><path d="m509.773438 499.019531-53.023438-53.023437v-28.460938h3.046875v9.769532c0 10.070312 8.191406 18.261718 18.261719 18.261718 10.066406 0 18.261718-8.195312 18.261718-18.261718v-34.753907c0-10.070312-8.195312-18.261719-18.261718-18.261719-10.070313 0-18.261719 8.191407-18.261719 18.261719v9.777344h-3.046875v-63.589844c0-4.199219-3.402344-7.605469-7.605469-7.605469-4.199219 0-7.601562 3.40625-7.601562 7.605469v102.542969h-39.441407v-172.214844c15.914063-4.496094 29.699219-14.113281 39.441407-26.964844v66.214844c0 4.199219 3.402343 7.605469 7.601562 7.605469 4.203125 0 7.605469-3.40625 7.605469-7.605469v-111.324218c0-.039063.003906-.078126.003906-.117188 0-32.074219-20.242187-59.503906-48.617187-70.210938v-15.796874h12.160156c4.203125 0 7.605469-3.40625 7.605469-7.605469v-75.257813c0-15.441406-12.5625-27.99999975-28.003906-27.99999975h-36.34375c-15.4375 0-28 12.55859375-28 27.99999975v75.257813c0 4.199219 3.402343 7.605469 7.601562 7.605469h12.167969v15.796874c-28.378907 10.707032-48.621094 38.136719-48.621094 70.210938 0 4.378906.398437 8.660156 1.121094 12.835938v87.359374l-294.84375-294.84375c-2.175781-2.1718745-5.445313-2.824218-8.285157-1.648437-2.84375 1.179687-4.695312 3.949219-4.695312 7.027344v496.789062c0 4.199219 3.402344 7.605469 7.605469 7.605469h496.789062c3.074219 0 5.847657-1.851562 7.027344-4.695312 1.175781-2.839844.527344-6.109376-1.648437-8.285157zm-34.765626-106.46875c0-1.683593 1.367188-3.054687 3.050782-3.054687s3.050781 1.371094 3.050781 3.054687v34.753907c0 1.683593-1.367187 3.050781-3.050781 3.050781s-3.050782-1.367188-3.050782-3.050781zm-58.503906 63.9375-14.402344 22.207031v-22.207031zm-54.019531 22.207031-14.402344-22.207031h14.402344zm15.207031-29.808593v-60.441407l9.203125 9.203126v99.144531h-9.203125zm9.203125-72.746094-9.203125-9.203125v-95.148438c1.339844.074219 2.683594.113282 4.035156.113282 1.738282 0 3.457032-.082032 5.167969-.199219zm-36.132812-348.136719c0-7.054687 5.738281-12.792968 12.792969-12.792968h36.34375c7.058593 0 12.796874 5.738281 12.796874 12.792968v67.652344h-49.699218c-.023438 0-.046875 0-.070313 0-.023437 0-.042969 0-.066406 0h-12.097656zm19.769531 82.859375h22.394531v11.828125c-3.652343-.550781-7.390625-.839844-11.199219-.839844-3.804687 0-7.542968.289063-11.195312.835938zm11.195312 26.195313c32.972657 0 59.796876 26.8125 59.816407 59.78125v.039062.113282c-.066407 32.929687-26.871094 59.703124-59.816407 59.703124-32.980468 0-59.816406-26.835937-59.816406-59.820312s26.835938-59.816406 59.816406-59.816406zm-19.242187 132.328125v171.894531h-39.453125v-197.757812c9.902344 12.4375 23.65625 21.667968 39.453125 25.863281zm-347.277344-243.425781 292.617188 292.617187v83.746094h-4.167969v-9.777344c0-10.066406-8.191406-18.257813-18.257812-18.257813-7.941407 0-14.695313 5.101563-17.203126 12.195313l-163.964843-163.964844c-2.175781-2.175781-5.449219-2.828125-8.289063-1.648437-2.839844 1.175781-4.695312 3.949218-4.695312 7.023437v51.695313c0 4.199218 3.40625 7.605468 7.605468 7.605468 4.199219 0 7.605469-3.40625 7.605469-7.605468v-33.335938l159.289063 159.289063h-159.289063v-95.535157c0-4.199218-3.40625-7.605468-7.605469-7.605468-4.199218 0-7.605468 3.40625-7.605468 7.605468v103.140626c0 4.199218 3.40625 7.601562 7.605468 7.601562h168.285157v6.554688c0 10.066406 8.191406 18.257812 18.261719 18.257812 10.066406 0 18.257812-8.191406 18.257812-18.257812v-9.769532h4.167969v31.347656c0 4.199219 3.402343 7.605469 7.601562 7.605469h14.527344l26.140625 40.304688h-59.03125v-34.707031c0-4.199219-3.40625-7.601563-7.605469-7.601563s-7.605469 3.402344-7.605469 7.601563v34.707031h-44.863281v-34.707031c0-4.199219-3.402343-7.601563-7.601562-7.601563-4.203125 0-7.605469 3.402344-7.605469 7.601563v34.707031h-44.863281v-34.707031c0-4.199219-3.402344-7.601563-7.601563-7.601563-4.203125 0-7.605468 3.402344-7.605468 7.601563v34.707031h-44.863282v-34.707031c0-4.199219-3.402344-7.601563-7.605468-7.601563-4.199219 0-7.601563 3.402344-7.601563 7.601563v34.707031h-44.863281v-34.707031c0-4.199219-3.40625-7.601563-7.605469-7.601563s-7.605469 3.402344-7.605469 7.601563v34.707031h-26.359375zm267.140625 366.589843c0-1.683593 1.367188-3.054687 3.050782-3.054687 1.683593 0 3.054687 1.371094 3.054687 3.054687v34.753907c0 1.683593-1.371094 3.050781-3.054687 3.050781-1.683594 0-3.050782-1.367188-3.050782-3.050781zm126.144532 104.242188 26.136718-40.304688h11.105469l40.304687 40.304688zm0 0"/><path d="m381.726562 232.472656c19.628907 0 35.59375-15.96875 35.59375-35.597656 0-19.625-15.964843-35.59375-35.59375-35.59375-19.625 0-35.59375 15.96875-35.59375 35.59375 0 19.628906 15.96875 35.597656 35.59375 35.597656zm0-55.984375c11.242188 0 20.386719 9.148438 20.386719 20.386719 0 11.242188-9.144531 20.386719-20.386719 20.386719-11.238281 0-20.386718-9.144531-20.386718-20.386719 0-11.238281 9.148437-20.386719 20.386718-20.386719zm0 0"/><path d="m369.296875 87.582031c4.199219 0 7.601563-3.40625 7.601563-7.605469v-49.726562c0-4.199219-3.402344-7.605469-7.601563-7.605469-4.203125 0-7.605469 3.40625-7.605469 7.605469v49.726562c0 4.199219 3.40625 7.605469 7.605469 7.605469zm0 0"/><path d="m394.160156 87.582031c4.199219 0 7.605469-3.40625 7.605469-7.605469v-49.726562c0-4.199219-3.40625-7.605469-7.605469-7.605469-4.199218 0-7.605468 3.40625-7.605468 7.605469v49.726562c0 4.199219 3.40625 7.605469 7.605468 7.605469zm0 0"/></svg>